<svg width="38" height="32" viewBox="0 0 38 32" fill="none" xmlns="http://www.w3.org/2000/svg">
<path d="M37.4103 19.0089C37.0132 17.9319 36.3749 17.0061 35.6268 16.228C34.8765 15.4488 34.013 14.8081 33.1103 14.291C32.2688 13.8096 31.194 14.1005 30.7127 14.9432C30.2302 15.7859 30.5211 16.8595 31.3649 17.3408C32.2353 17.8372 33.0122 18.4813 33.5271 19.1693C33.7856 19.5133 33.9807 19.8654 34.1123 20.2209C34.2428 20.5776 34.3097 20.9366 34.3109 21.3256C34.3097 21.7123 34.2382 22.0875 34.0846 22.4787C33.818 23.1598 33.2812 23.8974 32.442 24.6143C31.1906 25.6902 29.2837 26.6829 26.9484 27.3778C24.6155 28.0762 21.8601 28.486 18.913 28.486C14.4225 28.4906 10.373 27.5244 7.59223 26.0722C6.20006 25.3507 5.13458 24.5115 4.46856 23.6873C4.13145 23.2752 3.89371 22.8689 3.74019 22.4787C3.58667 22.0874 3.5139 21.7123 3.5139 21.3256C3.5139 20.9365 3.5832 20.5776 3.71359 20.2209C3.90753 19.6887 4.25387 19.1589 4.73061 18.6625C5.20624 18.1684 5.80879 17.7136 6.461 17.3407C7.30255 16.8582 7.59459 15.7846 7.11209 14.9419C6.6307 14.1004 5.55598 13.8083 4.7145 14.2908C3.51279 14.9812 2.37343 15.8873 1.49154 17.0544C1.05056 17.6384 0.677696 18.2906 0.413358 19.0087C0.151237 19.7257 -0.00117523 20.5083 6.82536e-06 21.3256C-0.00117523 22.1707 0.166234 22.9972 0.469802 23.7659C1.00313 25.1165 1.9312 26.2848 3.09715 27.2844C4.85524 28.7827 7.17437 29.9371 9.86976 30.7452C12.5652 31.5498 15.6415 31.9999 18.913 31.9999C23.8975 31.9953 28.426 30.9656 31.8544 29.1903C33.5664 28.2968 35.015 27.214 36.0828 25.9049C36.615 25.2505 37.0513 24.537 37.3537 23.7659C37.6585 22.9972 37.8259 22.1706 37.8259 21.3256C37.8259 20.5083 37.6747 19.7257 37.4103 19.0089Z" fill="black"/>
<path d="M11.329 20.879C11.7919 21.732 12.8585 22.0472 13.7116 21.5831C14.5635 21.1191 14.8798 20.0524 14.4146 19.2005C14.0625 18.5587 13.7878 18.1223 13.61 17.6606C13.4311 17.1977 13.2983 16.6748 13.2937 15.7559C13.296 14.9583 13.4011 14.4561 13.5419 14.0382C13.6492 13.7231 13.7855 13.4449 13.9655 13.1182C14.2298 12.6334 14.6166 12.0343 14.9421 11.1974C15.2665 10.3628 15.4847 9.32619 15.4812 8.06101C15.4858 6.76932 15.2584 5.71418 14.9224 4.87152C14.5865 4.0265 14.1941 3.42742 13.932 2.93915C13.4691 2.08726 12.4013 1.77209 11.5494 2.23612C10.6964 2.70015 10.3824 3.76792 10.8453 4.61989C11.1997 5.26057 11.4733 5.6969 11.6522 6.15864C11.83 6.62038 11.9639 7.14218 11.9662 8.06101C11.9639 8.85868 11.86 9.35965 11.7191 9.77751C11.6118 10.0927 11.4744 10.3708 11.2955 10.6975C11.0323 11.1824 10.6444 11.7827 10.3189 12.6184C9.99341 13.453 9.77635 14.4896 9.77983 15.7559C9.77635 17.0476 10.0026 18.1028 10.3386 18.9466C10.6744 19.7916 11.0681 20.3918 11.329 20.879Z" fill="black"/>
<path d="M18.2457 22.7641C18.6336 23.6541 19.6691 24.0604 20.5579 23.6725C21.4479 23.2847 21.8554 22.2504 21.4676 21.3604C21.1259 20.5846 20.8373 20.0167 20.6341 19.3668C20.4322 18.7157 20.2809 17.9435 20.2786 16.7118C20.2797 15.6417 20.3963 14.9179 20.5579 14.3222C20.6802 13.8755 20.8327 13.4911 21.0185 13.0698C21.292 12.443 21.6637 11.7192 21.9651 10.7495C22.2664 9.77987 22.4672 8.60128 22.4649 7.10295C22.4672 5.57344 22.2583 4.37638 21.9478 3.39631C21.6361 2.41512 21.2575 1.69015 20.9839 1.05642C20.596 0.166404 19.5617 -0.241111 18.6729 0.146752C17.7829 0.534615 17.3753 1.5701 17.7632 2.45893C18.1037 3.23584 18.3935 3.80264 18.5955 4.45137C18.7975 5.10128 18.9476 5.87235 18.9499 7.10295C18.9487 8.17301 18.8322 8.89798 18.6717 9.49359C18.5494 9.94152 18.3969 10.3247 18.21 10.7461C17.9364 11.3717 17.5647 12.0966 17.2645 13.0663C16.9621 14.0348 16.7624 15.2145 16.7647 16.7118C16.7624 18.2425 16.9713 19.4407 17.283 20.4219C17.5935 21.4042 17.9721 22.1303 18.2457 22.7641Z" fill="black"/>
<path d="M25.2965 20.879C25.7605 21.7321 26.8272 22.0472 27.6802 21.5831C28.5321 21.1191 28.8461 20.0524 28.3833 19.2005C28.03 18.5599 27.7565 18.1223 27.5775 17.6606C27.3998 17.1977 27.267 16.6748 27.2624 15.7559C27.2647 14.9583 27.3697 14.4561 27.5105 14.0383C27.6179 13.7231 27.7541 13.4449 27.9342 13.1182C28.1974 12.6334 28.5852 12.0331 28.9096 11.1974C29.234 10.3628 29.4521 9.3262 29.4487 8.06103C29.4533 6.76933 29.2258 5.71538 28.8899 4.87154C28.5552 4.02769 28.1627 3.42861 27.9018 2.94027C27.4378 2.0872 26.3711 1.77203 25.518 2.23614C24.6649 2.70024 24.351 3.76683 24.8139 4.61872C25.1671 5.26058 25.4407 5.69691 25.6196 6.15747C25.7985 6.62039 25.9301 7.14213 25.9336 8.06103C25.9313 8.8587 25.8274 9.35967 25.6865 9.77753C25.5792 10.0927 25.443 10.3708 25.264 10.6975C24.9997 11.1824 24.6129 11.7827 24.2874 12.6184C23.9619 13.453 23.7449 14.4896 23.7483 15.7559C23.7449 17.0476 23.9712 18.1028 24.3071 18.9466C24.6432 19.7916 25.0356 20.3907 25.2965 20.879Z" fill="black"/>
</svg>
