<svg width="33" height="32" viewBox="0 0 33 32" fill="none" xmlns="http://www.w3.org/2000/svg">
<path d="M15.062 0.000252833C14.3946 0.00855049 13.7534 0.186259 12.9574 0.48857L2.08181 4.42996C0.630825 4.95893 0.589129 5.24825 0.536785 6.73118L0.024681 22.914C-0.0587796 24.8165 -0.0205413 25.2087 1.63235 25.926L14.4787 31.5553C15.816 32.1285 16.6849 32.0846 17.6032 31.7778L30.1837 27.8689C31.7015 27.3645 31.9151 27.2032 31.9729 25.3212L32.5043 8.02367C32.5501 6.82259 32.1125 6.31609 31.2058 5.97519L17.3201 0.521C16.4228 0.151478 15.7296 -0.00825227 15.062 0.000252833ZM15.1183 1.72029C16.7527 1.71662 18.2689 2.30348 21.1945 3.44025C27.8012 6.00721 30.3019 7.16037 26.0132 8.82938C20.8961 10.821 17.1502 11.949 14.1005 10.6143L6.42308 7.25421C4.03266 6.20822 3.33289 5.35542 7.65687 3.79035C11.5042 2.39772 13.3782 1.72409 15.1183 1.72029ZM18.2104 4.74548C15.5632 4.77327 14.3876 6.21174 14.2819 7.43779C14.2216 8.13839 14.4859 8.79307 15.1398 9.2529C15.7936 9.71273 16.893 9.9831 18.5259 9.6635C21.0025 9.17878 22.7809 8.62242 23.8848 8.0839C24.4367 7.81464 24.8158 7.54891 25.0257 7.33407C25.2357 7.11923 25.2645 6.99234 25.2635 6.91919C25.2624 6.8461 25.233 6.73422 25.0344 6.54538C24.8357 6.35661 24.4791 6.12773 23.982 5.91227C22.9878 5.48127 21.4403 5.09101 19.4378 4.82527C18.9984 4.76705 18.5886 4.74147 18.2104 4.74548ZM2.67392 7.40979C3.39111 7.38973 4.69419 7.90765 7.09283 8.97638C16.8374 13.3179 16.8094 13.5315 16.149 22.8512C15.6109 30.4442 15.5408 30.447 7.2657 26.9504C2.20759 24.813 1.26331 24.1255 1.37526 20.7983L1.75336 9.5317C1.79997 8.14641 1.86109 7.43254 2.67392 7.40979ZM29.0838 9.54685C31.101 9.5203 31.096 11.4882 30.9335 16.8246C30.6488 26.1686 30.3077 26.5179 22.6099 28.8368C17.7406 30.3034 16.9751 30.608 17.1494 28.0049L17.91 16.6539C18.1325 13.3325 18.4347 13.0923 24.4661 10.852C26.632 10.0476 28.0988 9.55985 29.0838 9.54685ZM27.6706 12.3603C27.6477 12.3602 27.624 12.3613 27.6015 12.3624C27.2405 12.3806 26.8944 12.5539 26.6204 12.9437C26.3466 13.3336 26.1495 13.9609 26.2272 14.8734C26.3273 16.0512 25.9155 17.5086 25.1792 18.8105C24.4428 20.1123 23.3466 21.2936 21.873 21.4943C19.8589 21.7687 18.9404 23.1248 18.8651 24.4028C18.8274 25.0417 19.0108 25.6495 19.3967 26.1034C19.7825 26.5573 20.3708 26.8872 21.2766 26.9352C24.1217 27.0863 26.2093 26.1908 27.6101 24.2278C29.011 22.2647 29.7119 19.1275 29.3993 14.7826C29.2696 12.9795 28.3823 12.364 27.6706 12.3603ZM10.6431 12.9718C10.5986 12.9718 10.5589 12.9762 10.5242 12.9848C10.3857 13.0189 10.2694 13.0906 10.1332 13.3176C10.0009 13.5379 9.87815 13.9135 9.8285 14.4477L9.82408 14.4931C9.7281 15.6501 9.26412 16.4708 8.59022 16.9176C7.91638 17.3643 7.15237 17.4575 6.43801 17.5464C5.72372 17.6353 5.04283 17.7117 4.4911 17.944C3.93952 18.1763 3.49815 18.5235 3.14495 19.3117C2.64709 20.4234 2.65103 21.2497 2.92893 21.9783C3.20676 22.7069 3.80627 23.3685 4.63597 23.9662C6.29536 25.1618 8.80347 26.0376 10.7836 26.8596C11.5709 27.1865 12.2008 27.308 12.67 27.2832C13.1393 27.2585 13.4499 27.1157 13.7332 26.8295C14.2998 26.257 14.7052 24.9147 14.7704 22.8643C14.9103 18.465 13.4676 15.2385 12.0974 13.8147C11.4981 13.1918 10.955 12.9715 10.6431 12.9718ZM23.3814 13.4429C23.3157 13.4427 23.2482 13.4453 23.176 13.4494C20.7238 13.587 19.824 14.3391 19.5458 15.1132C19.2676 15.8874 19.6029 16.985 20.2957 17.8639C21.09 18.872 21.7194 18.952 22.4003 18.7132C23.0812 18.4743 23.8207 17.7377 24.2933 16.8526C24.7658 15.9675 24.951 14.9582 24.7903 14.3439C24.7099 14.0367 24.5729 13.8307 24.3429 13.6783C24.1418 13.545 23.8399 13.4441 23.3814 13.4429Z" fill="black"/>
</svg>
